<?xml version="1.0" standalone="no"?>
<!DOCTYPE svg PUBLIC "-//W3C//DTD SVG 20010904//EN"
 "http://www.w3.org/TR/2001/REC-SVG-20010904/DTD/svg10.dtd">
<svg version="1.0" xmlns="http://www.w3.org/2000/svg"
 width="534.000000pt" height="534.000000pt" viewBox="0 0 534.000000 534.000000"
 preserveAspectRatio="xMidYMid meet">
<metadata>
Created by potrace 1.11, written by Peter Selinger 2001-2013
</metadata>
<g transform="translate(0.000000,534.000000) scale(0.100000,-0.100000)"
fill="#000000" stroke="none">
<path d="M2434 4975 c-287 -42 -544 -152 -781 -333 -100 -76 -262 -244 -336
-349 -158 -223 -267 -510 -296 -785 -7 -56 -11 -335 -11 -661 0 -611 1 -620
56 -730 15 -28 56 -82 91 -118 88 -92 151 -124 306 -154 l27 -5 0 -403 c0
-436 7 -541 45 -648 63 -180 205 -334 386 -419 124 -57 157 -60 749 -60 573 0
597 2 722 51 160 63 326 228 395 394 48 114 53 174 53 644 l0 440 38 6 c207
33 365 166 423 356 19 63 20 88 16 715 -3 629 -4 652 -26 749 -142 635 -606
1120 -1216 1274 -200 50 -446 64 -641 36z m471 -60 c401 -63 803 -315 1048
-656 77 -107 192 -330 225 -434 71 -226 81 -355 82 -995 0 -393 -3 -497 -15
-548 -45 -192 -187 -315 -435 -379 l-35 -9 -5 -479 -5 -480 -29 -84 c-84 -239
-289 -416 -537 -461 -44 -8 -215 -12 -539 -12 -537 1 -567 4 -705 71 -185 91
-314 245 -367 439 -20 72 -22 107 -26 543 l-4 465 -70 17 c-160 37 -300 143
-365 275 l-38 76 0 630 c0 710 0 711 76 940 115 345 343 639 655 843 332 217
702 298 1089 238z"/>
<path d="M2505 4898 c-186 -20 -414 -95 -576 -188 -46 -26 -85 -54 -87 -62 -6
-30 58 -99 115 -125 166 -76 347 35 344 213 0 41 3 54 14 54 8 0 18 -12 21
-27 16 -67 87 -100 142 -67 30 17 52 51 52 79 0 8 7 15 15 15 21 0 19 -39 -5
-77 -37 -61 -105 -78 -172 -45 l-36 19 -11 -37 c-31 -105 -138 -181 -253 -182
-105 0 -186 46 -249 142 l-16 25 -39 -30 -38 -29 32 -7 c43 -9 79 -34 103 -72
25 -40 23 -135 -4 -165 -16 -18 -16 -20 4 -38 32 -29 49 -69 49 -114 0 -78
-44 -135 -115 -150 -27 -5 -31 -10 -36 -50 -7 -64 -33 -107 -79 -130 -50 -25
-95 -25 -144 0 l-39 19 -34 -29 c-18 -17 -39 -30 -45 -30 -7 0 11 -12 40 -26
28 -14 70 -46 91 -71 l40 -44 19 38 c50 97 163 143 275 112 49 -13 115 -73
138 -124 23 -50 25 -105 4 -105 -10 0 -15 10 -15 30 0 17 -9 47 -19 68 -61
118 -203 149 -302 64 -54 -47 -79 -101 -79 -176 0 -71 -17 -65 -31 11 -34 181
-266 254 -393 124 -66 -67 -69 -91 -73 -623 -4 -450 -4 -468 14 -461 31 11 61
33 70 51 4 9 10 213 13 452 5 415 6 437 25 470 56 94 200 98 255 7 26 -43 26
-121 0 -164 -23 -38 -67 -63 -110 -63 -42 0 -38 17 8 30 69 18 113 89 92 146
-29 75 -99 109 -163 79 -74 -35 -71 -19 -77 -511 l-5 -441 -28 -36 c-16 -22
-41 -40 -60 -45 l-32 -8 -3 -77 -3 -77 37 25 c67 45 163 26 205 -41 17 -27 26
-33 43 -29 11 4 29 9 38 11 30 9 93 -15 122 -45 33 -34 47 -87 36 -136 -7 -32
-5 -36 26 -54 75 -44 97 -144 49 -215 l-25 -37 274 3 c260 3 276 4 303 24 15
11 34 39 41 62 12 36 11 45 -4 77 -33 71 -129 89 -183 34 -19 -19 -31 -41 -31
-57 0 -15 -4 -33 -9 -41 -11 -17 -31 -6 -31 18 0 10 -12 30 -26 45 -48 47
-125 28 -142 -36 -11 -43 -32 -48 -32 -8 0 23 10 42 34 66 29 29 41 34 79 34
30 0 53 -7 72 -22 l27 -21 24 30 c33 43 73 57 143 50 144 -15 269 79 288 218
7 52 33 64 33 15 0 -51 -38 -134 -81 -178 -42 -42 -111 -82 -142 -82 -21 0
-21 -4 -1 -35 23 -35 22 -113 -1 -153 -11 -18 -38 -41 -60 -52 -38 -18 -63
-20 -271 -20 l-229 0 64 -30 c76 -36 186 -142 215 -208 l19 -43 19 30 c31 48
79 72 142 72 31 0 63 -4 72 -9 12 -7 26 -4 48 9 38 23 117 25 150 4 22 -15 27
-14 57 4 43 26 85 26 127 1 32 -20 32 -20 69 0 48 25 89 25 130 0 l33 -20 40
21 c48 25 104 22 147 -9 22 -15 33 -18 47 -10 28 16 109 12 144 -6 17 -9 42
-30 54 -46 12 -17 25 -30 28 -30 4 0 16 19 26 43 27 61 127 156 204 194 l65
33 -230 0 c-257 0 -279 5 -322 69 -27 40 -31 116 -8 147 23 30 18 38 -36 57
-97 35 -168 127 -182 235 -8 63 17 54 32 -12 15 -66 53 -126 106 -165 54 -39
102 -50 190 -44 l75 6 41 -41 41 -42 28 20 c71 50 174 6 182 -79 4 -35 -19
-37 -27 -2 -14 65 -100 94 -143 48 -11 -12 -24 -34 -27 -49 -11 -42 -32 -34
-38 15 -8 60 -51 97 -113 97 -39 0 -51 -5 -80 -34 -39 -39 -45 -86 -19 -136
29 -57 48 -60 340 -60 146 0 265 2 265 5 0 3 -9 18 -20 33 -11 15 -22 45 -25
67 -8 52 27 122 71 144 31 16 31 17 26 73 -4 47 -1 63 18 92 35 58 100 81 175
63 26 -6 32 -4 47 23 40 71 146 91 217 41 l32 -23 -3 78 -3 78 -38 9 c-29 7
-45 19 -65 50 l-27 41 -5 436 c-5 400 -6 438 -23 464 -27 40 -82 61 -127 47
-117 -35 -118 -192 -2 -229 51 -17 55 -32 8 -32 -39 0 -88 36 -111 81 -33 62
-5 157 57 194 18 10 50 17 80 17 56 0 89 -19 126 -72 22 -33 22 -34 22 -452 0
-441 2 -461 46 -500 11 -9 28 -18 39 -20 20 -3 20 2 19 432 -1 569 -10 622
-118 685 -90 52 -192 42 -271 -27 -54 -47 -75 -84 -84 -146 -9 -68 -25 -56
-32 24 -6 84 -28 127 -88 169 -37 26 -51 30 -110 30 -58 0 -74 -4 -109 -29
-43 -30 -92 -111 -92 -153 0 -15 -6 -23 -16 -23 -14 0 -15 7 -10 41 23 144
157 228 300 188 45 -12 119 -77 136 -120 l13 -30 41 45 c23 25 63 56 90 70 40
20 45 25 29 30 -11 4 -30 17 -42 30 l-23 24 -32 -19 c-19 -12 -49 -19 -80 -19
-89 0 -149 59 -149 148 0 34 -4 42 -19 42 -10 0 -37 9 -59 21 -42 21 -78 80
-79 127 0 30 26 92 50 117 20 21 20 21 0 60 -45 89 -4 184 94 215 l39 13 -34
28 c-19 16 -36 29 -39 29 -3 0 -14 -17 -25 -37 -39 -72 -136 -124 -231 -125
-128 -1 -227 75 -268 205 -5 16 -7 16 -38 -3 -40 -24 -79 -25 -123 -4 -39 18
-59 45 -69 92 -10 45 19 44 34 -2 20 -61 75 -89 131 -66 30 13 59 54 59 85 0
8 7 15 15 15 11 0 15 -13 15 -52 1 -153 143 -270 288 -237 61 13 115 49 153
102 l30 42 -28 22 c-15 13 -77 47 -138 77 -271 133 -552 186 -830 154z m179
-244 c9 -23 7 -87 -3 -103 -16 -25 -31 0 -31 53 0 29 3 56 7 59 11 11 20 8 27
-9z m-90 -25 c9 -47 7 -89 -4 -89 -9 0 -12 10 -26 78 -3 13 -2 27 1 32 11 18
23 10 29 -21z m176 17 c0 -51 -14 -106 -28 -106 -12 0 -13 9 -8 52 4 28 9 55
12 60 8 13 24 9 24 -6z m-286 -74 c16 -41 15 -62 -3 -62 -13 0 -43 89 -37 107
8 21 19 9 40 -45z m398 -7 c-30 -77 -57 -71 -31 6 15 44 30 62 41 51 5 -5 1
-29 -10 -57z m-512 -39 c32 -48 37 -66 18 -66 -17 0 -71 87 -63 100 9 15 12
14 45 -34z m631 2 c-25 -48 -50 -73 -60 -63 -7 7 0 26 21 58 21 33 34 45 41
38 7 -7 7 -18 -2 -33z m-252 -45 c14 -11 35 -34 46 -51 15 -24 25 -29 40 -24
96 33 197 -34 197 -131 0 -25 -3 -55 -6 -65 -5 -15 1 -22 24 -32 43 -18 74
-73 74 -132 0 -54 -21 -90 -72 -123 -25 -17 -29 -24 -24 -45 27 -98 -35 -191
-129 -194 -24 0 -53 2 -64 6 -17 6 -24 1 -39 -27 -25 -46 -93 -79 -147 -72
-50 7 -85 29 -110 72 -19 31 -22 33 -54 24 -42 -12 -101 2 -138 31 -34 27 -51
81 -44 140 5 44 4 48 -24 64 -92 54 -91 202 1 254 28 16 30 20 24 63 -8 61 10
113 50 144 37 28 100 41 137 27 24 -10 29 -7 50 26 46 71 144 92 208 45z
m-465 -42 c52 -53 28 -67 -25 -15 -21 21 -39 42 -39 46 0 19 29 5 64 -31z
m826 27 c0 -16 -61 -78 -77 -78 -22 0 -15 22 19 57 32 34 58 43 58 21z m-907
-114 c54 -34 52 -33 40 -45 -8 -8 -23 -3 -54 16 -55 35 -52 32 -44 44 9 15 10
15 58 -15z m987 12 c0 -8 -20 -26 -44 -40 -52 -30 -56 -31 -56 -12 0 8 19 26
43 40 48 30 57 31 57 12z m-1037 -122 c26 -9 47 -22 47 -30 0 -18 -6 -18 -63
2 -26 9 -47 22 -47 30 0 18 6 18 63 -2z m1092 6 c7 -11 -50 -38 -86 -43 -40
-4 -31 21 13 36 53 19 65 20 73 7z m-1068 -133 c15 -15 -15 -24 -61 -18 -29 3
-51 12 -54 20 -4 11 7 13 52 9 31 -3 59 -8 63 -11z m1093 -2 c0 -11 -11 -15
-39 -15 -22 0 -46 -3 -55 -6 -10 -4 -16 -1 -16 9 0 18 19 24 73 26 27 1 37 -3
37 -14z m-1090 -114 c0 -15 -11 -19 -64 -22 -31 -3 -51 0 -53 8 -2 6 4 13 14
16 33 9 103 7 103 -2z m1068 3 c12 -4 22 -13 22 -21 0 -10 -6 -13 -16 -9 -9 3
-33 6 -55 6 -28 0 -39 4 -39 15 0 16 44 20 88 9z m-1048 -115 c0 -10 -39 -27
-84 -36 -46 -9 -27 19 25 38 44 17 59 16 59 -2z m1039 -14 c11 -4 11 -9 3 -17
-8 -8 -23 -7 -57 2 -47 13 -60 23 -50 39 5 9 28 3 104 -24z m-989 -85 c0 -5
-21 -21 -46 -36 -32 -19 -48 -24 -56 -16 -7 7 4 19 38 41 46 28 64 31 64 11z
m940 -47 c0 -19 -17 -16 -65 13 -29 16 -42 30 -38 40 4 11 15 9 54 -14 27 -15
49 -33 49 -39z m-875 -32 c8 -14 -54 -81 -76 -81 -27 0 -24 9 18 52 39 40 48
44 58 29z m757 -28 c39 -38 47 -53 26 -53 -16 0 -78 61 -78 77 0 21 12 15 52
-24z m-672 -44 c0 -15 -53 -99 -62 -99 -19 0 -15 21 12 64 28 44 50 59 50 35z
m583 -33 c28 -45 34 -66 17 -66 -14 0 -72 89 -65 100 11 17 19 11 48 -34z
m-979 -70 c33 -62 33 -100 1 -131 -44 -45 -116 -26 -138 37 -9 25 8 73 44 130
31 48 33 49 50 31 10 -10 29 -40 43 -67z m1440 0 c33 -62 33 -100 1 -131 -43
-44 -112 -29 -134 28 -13 33 -1 75 40 139 31 48 33 49 50 31 10 -10 29 -40 43
-67z m-959 0 c-20 -51 -32 -65 -40 -43 -9 22 34 112 47 99 7 -7 5 -23 -7 -56z
m389 21 c19 -50 21 -80 5 -75 -14 5 -50 98 -43 110 11 17 22 7 38 -35z m-269
-29 c-9 -61 -15 -78 -26 -78 -10 0 -12 43 -3 89 4 18 13 31 21 31 12 0 13 -9
8 -42z m150 30 c2 -7 6 -34 10 -60 5 -38 3 -48 -8 -48 -15 0 -27 41 -27 91 0
29 17 40 25 17z m-524 -34 c4 -16 7 -53 8 -82 1 -44 -3 -57 -24 -77 -67 -68
-174 9 -131 94 17 32 113 104 131 98 5 -2 13 -17 16 -33z m944 6 c87 -60 108
-118 60 -165 -24 -25 -65 -32 -100 -19 -31 12 -47 61 -40 122 12 106 14 107
80 62z m-495 -65 l0 -85 65 0 c51 0 65 -3 65 -15 0 -12 -14 -15 -65 -15 l-65
0 0 -195 c0 -167 -2 -195 -15 -195 -13 0 -15 28 -15 195 l0 195 -65 0 c-51 0
-65 3 -65 15 0 12 14 15 65 15 l65 0 0 85 c0 69 3 85 15 85 12 0 15 -16 15
-85z m-959 37 c63 -44 85 -77 75 -115 -19 -78 -117 -91 -154 -20 -15 28 -16
143 -1 143 6 0 9 7 5 15 -9 25 18 17 75 -23z m1964 29 c-3 -5 -1 -12 5 -16 5
-3 10 -38 10 -76 0 -61 -3 -73 -25 -94 -65 -66 -163 11 -128 100 3 10 33 35
66 56 59 38 84 48 72 30z m-1241 -164 c-11 -54 -46 -127 -65 -137 -10 -6 -33
-10 -53 -10 -62 0 -97 75 -61 128 15 20 82 46 145 54 36 6 42 0 34 -35z m551
21 c58 -14 85 -43 85 -90 0 -51 -27 -78 -79 -78 -39 0 -62 14 -80 48 -14 26
-40 130 -34 136 6 5 45 0 108 -16z m-1433 -39 c43 -11 68 -41 68 -82 0 -40
-14 -62 -50 -77 -44 -18 -85 2 -112 54 -28 55 -39 96 -26 96 6 0 5 7 -3 17
-13 15 -10 15 36 9 28 -4 67 -12 87 -17z m2332 -17 c-2 -42 -33 -110 -59 -132
-29 -24 -85 -17 -111 14 -58 66 -7 131 116 150 56 8 56 8 54 -32z m-1763 -18
c163 -78 255 -252 229 -436 -38 -266 -332 -421 -583 -305 -251 116 -310 458
-114 658 87 88 167 119 302 116 89 -2 108 -6 166 -33z m1422 4 c127 -59 223
-199 234 -341 11 -138 -30 -240 -133 -337 -200 -186 -522 -123 -645 126 -27
54 -33 81 -37 150 -3 51 1 103 8 132 27 98 117 214 201 258 68 35 113 44 214
41 84 -2 109 -7 158 -29z m-1019 -131 c27 -7 51 -18 54 -25 2 -7 -23 -40 -55
-73 -70 -69 -98 -75 -144 -30 -31 32 -36 55 -18 95 21 45 70 54 163 33z m411
-12 c25 -24 32 -65 19 -100 -8 -19 -55 -45 -82 -45 -24 0 -101 67 -125 108
l-17 30 32 11 c93 28 142 28 173 -4z m-1439 -39 c21 -18 28 -32 28 -61 0 -29
-7 -43 -28 -61 -31 -28 -56 -30 -95 -10 -53 28 -125 125 -93 126 4 1 30 7 57
15 72 20 100 18 131 -9z m2463 6 c30 -10 56 -22 58 -28 2 -6 -24 -37 -57 -68
-57 -55 -64 -58 -98 -53 -70 12 -97 92 -47 142 29 30 66 31 144 7z m-1402
-200 c29 -20 53 -43 53 -50 0 -17 -117 -72 -153 -72 -39 0 -77 40 -77 82 1 38
17 63 51 77 34 14 65 5 126 -37z m334 33 c34 -18 49 -49 42 -88 -7 -34 -47
-67 -82 -67 -31 0 -151 55 -151 69 0 19 118 100 148 101 7 0 26 -7 43 -15z
m-1412 -45 c29 -15 44 -61 31 -95 -22 -59 -75 -70 -163 -33 -67 28 -73 33 -56
54 53 65 141 100 188 74z m2462 -8 c55 -36 91 -73 86 -86 -7 -18 -108 -56
-148 -56 -66 0 -101 79 -58 134 25 31 80 35 120 8z m-1479 -167 c31 -31 82
-124 73 -133 -4 -4 -43 -7 -87 -7 -75 0 -81 2 -104 28 -70 82 42 189 118 112z
m500 5 c52 -41 37 -119 -28 -140 -35 -12 -139 -9 -152 5 -10 10 48 114 76 135
32 25 72 25 104 0z m-1393 -46 c43 -54 17 -118 -54 -134 -66 -15 -135 -13
-135 5 0 22 47 112 70 135 31 31 93 27 119 -6z m2296 2 c29 -30 78 -124 70
-136 -8 -12 -87 -12 -139 0 -49 11 -65 27 -73 72 -4 30 -1 41 20 62 35 34 89
35 122 2z m-1550 -118 c14 -13 30 -41 35 -63 12 -52 13 -125 1 -125 -29 0
-126 48 -146 72 -33 39 -32 73 4 109 35 35 70 37 106 7z m774 7 c31 -16 41
-33 41 -71 0 -43 -20 -65 -86 -95 -94 -43 -98 -42 -90 33 9 79 29 126 58 138
33 13 45 12 77 -5z m-1372 -37 c31 -29 31 -87 1 -116 -25 -23 -119 -72 -138
-72 -9 0 -11 21 -8 82 4 73 8 84 32 105 35 29 82 30 113 1z m1993 4 c17 -13
23 -35 31 -96 7 -51 7 -82 0 -89 -14 -14 -136 46 -156 77 -22 33 -13 89 18
111 29 20 80 19 107 -3z m-1033 -39 c3 -10 59 -144 125 -297 132 -307 135
-322 81 -378 -54 -56 -145 -56 -198 0 l-26 28 -34 -31 c-58 -55 -150 -53 -199
5 -49 59 -48 63 91 389 71 167 134 300 141 301 7 0 15 -8 19 -17z m-562 -19
c31 -12 46 -59 35 -111 -16 -71 -33 -113 -45 -113 -12 0 -73 62 -99 100 -48
72 25 156 109 124z m1184 -15 c25 -27 31 -61 16 -96 -17 -38 -103 -120 -114
-108 -14 17 -41 107 -41 140 0 50 33 85 80 85 27 0 45 -7 59 -21z m-1382 -11
c26 -24 30 -70 10 -104 -24 -40 -81 -104 -93 -104 -17 0 -54 102 -54 150 0 52
27 80 77 80 24 0 45 -8 60 -22z m1602 -4 c12 -15 21 -37 21 -49 0 -26 -37
-136 -50 -149 -21 -21 -120 104 -120 151 0 67 107 100 149 47z"/>
<path d="M2633 4473 c-25 -5 -83 -66 -83 -88 0 -23 -16 -26 -56 -9 -72 30
-151 -16 -161 -95 -4 -28 -1 -48 11 -65 22 -35 20 -43 -11 -51 -89 -20 -122
-121 -62 -190 17 -19 38 -35 48 -35 36 0 44 -15 26 -50 -33 -64 -6 -138 62
-166 32 -14 88 -9 99 7 11 18 44 9 44 -11 0 -11 15 -37 33 -57 29 -31 40 -36
78 -37 57 -1 97 24 117 75 17 44 17 44 65 24 46 -19 90 -10 126 26 36 35 43
73 25 124 -18 53 -20 49 25 68 48 22 74 59 74 108 0 50 -25 87 -71 106 -20 8
-38 16 -40 18 -2 2 3 23 11 47 19 55 12 91 -24 128 -38 37 -77 45 -124 26 -50
-21 -50 -21 -67 23 -23 58 -82 88 -145 74z m64 -93 c42 -15 74 -90 38 -90 -8
0 -15 9 -15 20 0 11 -11 27 -25 36 -33 21 -72 6 -81 -31 -8 -32 -30 -27 -26 6
5 29 20 49 47 59 27 12 28 12 62 0z m-157 -85 c18 -22 6 -29 -28 -17 -23 8
-35 7 -52 -5 -19 -13 -21 -21 -15 -59 7 -47 -6 -59 -25 -25 -16 31 -12 79 10
101 24 24 91 27 110 5z m365 -5 c24 -26 25 -85 2 -107 -22 -23 -33 -9 -18 23
24 54 -19 95 -71 68 -26 -13 -28 -13 -28 5 0 23 13 29 61 30 24 1 42 -6 54
-19z m-121 -67 c58 -41 89 -102 89 -173 0 -207 -266 -285 -383 -112 -21 31
-25 49 -25 113 0 67 3 80 29 117 17 26 48 51 80 67 68 35 149 31 210 -12z
m-354 -101 c0 -5 -15 -15 -32 -23 -21 -9 -34 -22 -36 -37 -4 -25 23 -62 45
-62 7 0 13 -7 13 -15 0 -18 -14 -19 -43 -3 -51 27 -63 85 -25 125 20 22 78 33
78 15z m569 -18 c35 -45 24 -96 -26 -122 -29 -16 -43 -15 -43 3 0 8 6 15 13
15 22 0 49 37 45 62 -2 15 -15 28 -35 37 -41 18 -42 31 -4 31 20 0 36 -9 50
-26z m-554 -191 c-17 -40 -16 -59 4 -77 19 -18 33 -18 74 -1 24 10 23 -21 -2
-35 -66 -35 -139 32 -112 103 6 15 18 27 27 27 11 0 14 -5 9 -17z m473 5 c7
-7 12 -27 12 -45 0 -62 -66 -102 -121 -73 -25 14 -26 45 -1 35 37 -16 60 -16
75 0 19 18 23 60 7 70 -11 7 -4 25 9 25 4 0 12 -5 19 -12z m-304 -133 c14 -54
86 -54 106 1 12 29 30 32 30 3 0 -34 -18 -57 -53 -68 -55 -18 -98 5 -112 62
-5 20 -4 27 8 27 8 0 18 -11 21 -25z"/>
<path d="M2612 4222 c-36 -11 -93 -62 -108 -98 -55 -132 52 -270 193 -249 35
5 56 17 89 48 77 74 82 174 12 246 -53 54 -117 72 -186 53z m123 -42 c132 -64
92 -261 -56 -277 -159 -16 -222 208 -79 279 46 23 84 23 135 -2z"/>
<path d="M2612 4153 c-108 -53 -62 -223 60 -223 37 0 88 37 105 78 21 50 2
107 -46 139 -40 27 -73 29 -119 6z"/>
<path d="M1915 3515 c-26 -52 -27 -56 -11 -80 28 -43 96 -24 96 26 0 22 -34
94 -49 103 -5 4 -22 -19 -36 -49z"/>
<path d="M3355 3515 c-26 -52 -27 -56 -11 -80 29 -43 96 -24 96 27 0 19 -45
108 -55 108 -2 0 -16 -25 -30 -55z"/>
<path d="M2144 3476 c-48 -44 -49 -45 -34 -73 18 -33 60 -42 84 -18 10 11 16
33 16 63 0 75 -10 79 -66 28z"/>
<path d="M3124 3473 c-9 -58 10 -97 48 -101 30 -4 58 21 58 50 0 20 -46 70
-81 89 -16 8 -19 3 -25 -38z"/>
<path d="M1666 3493 c-3 -3 -6 -30 -6 -58 0 -57 19 -85 58 -85 26 0 56 42 48
68 -7 22 -90 84 -100 75z"/>
<path d="M3620 3468 c-54 -40 -67 -88 -30 -108 55 -29 95 22 81 105 l-6 38
-45 -35z"/>
<path d="M2336 3355 c-55 -19 -71 -52 -43 -87 40 -50 90 -16 113 77 7 30 -9
32 -70 10z"/>
<path d="M2925 3349 c25 -86 64 -120 104 -92 16 11 21 23 19 46 -3 35 -26 50
-92 63 -37 6 -38 6 -31 -17z"/>
<path d="M1470 3325 c0 -24 28 -80 50 -100 20 -18 24 -18 48 -4 33 18 40 58
14 82 -25 22 -112 39 -112 22z"/>
<path d="M3845 3334 c-5 -1 -27 -5 -48 -9 -48 -8 -75 -44 -59 -80 26 -57 90
-35 115 39 15 44 13 56 -8 50z"/>
<path d="M1897 3318 c-80 -10 -141 -42 -208 -108 -65 -64 -96 -124 -110 -210
-40 -251 190 -477 438 -431 85 16 147 48 206 107 228 230 88 611 -238 646 -16
2 -56 0 -88 -4z m120 -61 c27 -28 41 -77 21 -77 -7 0 -19 13 -25 30 -16 42
-54 58 -87 36 -14 -9 -28 -27 -32 -41 -3 -14 -13 -25 -21 -25 -12 0 -14 7 -8
28 19 76 99 102 152 49z m178 -72 c32 -31 34 -93 6 -119 -21 -19 -42 -3 -22
17 12 12 14 56 3 73 -17 25 -47 32 -79 19 -38 -16 -58 0 -28 22 31 22 92 16
120 -12z m-390 3 c14 -6 25 -17 25 -25 0 -16 -5 -16 -47 -1 -29 11 -35 10 -58
-12 -29 -27 -31 -47 -9 -79 22 -31 2 -55 -21 -25 -25 32 -29 64 -11 100 23 49
70 66 121 42z m242 -44 c81 -39 125 -111 124 -205 0 -126 -88 -212 -216 -212
-128 0 -217 87 -217 212 0 93 44 165 124 204 43 22 140 22 185 1z m220 -128
c56 -49 22 -156 -50 -156 -35 0 -32 22 4 30 13 3 30 18 38 32 21 36 2 76 -39
84 -16 4 -30 13 -30 20 0 22 46 16 77 -10z m-557 -9 c0 -6 -14 -18 -30 -25
-17 -8 -33 -24 -36 -38 -8 -31 18 -72 51 -80 14 -3 25 -10 25 -14 0 -32 -76
-8 -95 30 -19 37 -19 53 1 91 20 39 84 67 84 36z m508 -192 c18 -40 14 -71
-14 -104 -20 -24 -34 -31 -62 -31 -38 1 -72 19 -72 39 0 14 27 15 35 1 10 -16
57 -12 77 7 19 17 25 68 8 78 -15 9 -12 35 3 35 8 0 19 -11 25 -25z m-478 -4
c0 -5 -4 -20 -9 -33 -20 -55 36 -105 84 -74 25 17 45 14 45 -5 0 -16 -69 -41
-93 -33 -43 13 -67 45 -67 89 0 38 13 65 32 65 4 0 8 -4 8 -9z m313 -137 c-5
-60 -84 -94 -138 -58 -28 19 -49 70 -32 81 6 3 13 1 15 -5 9 -29 46 -62 68
-62 29 0 64 33 64 61 0 12 5 19 13 16 6 -2 11 -17 10 -33z"/>
<path d="M1880 3119 c-65 -26 -112 -98 -114 -174 -1 -74 37 -135 106 -169 65
-33 101 -33 166 0 121 60 143 213 45 306 -15 15 -41 32 -56 37 -35 13 -113 13
-147 0z m157 -49 c64 -39 89 -150 47 -207 -38 -50 -71 -68 -129 -68 -87 0
-149 59 -149 142 1 95 58 153 149 153 32 0 62 -7 82 -20z"/>
<path d="M1920 3059 c-39 -16 -79 -60 -86 -94 -13 -69 51 -145 121 -145 70 0
134 76 121 145 -7 36 -47 79 -89 94 -33 13 -34 13 -67 0z m50 -63 c0 -33 2
-35 37 -38 52 -4 56 -28 4 -28 l-41 0 0 -40 c0 -29 -4 -40 -15 -40 -11 0 -15
11 -15 40 l0 40 -41 0 c-52 0 -48 24 4 28 35 3 37 5 37 38 0 24 5 34 15 34 10
0 15 -10 15 -34z"/>
<path d="M3324 3319 c-118 -15 -241 -107 -293 -218 -23 -49 -26 -69 -26 -156
0 -93 2 -105 33 -167 40 -82 122 -159 202 -190 78 -30 204 -30 280 0 80 31
162 108 201 188 117 237 -42 520 -306 546 -22 2 -63 1 -91 -3z m91 -43 c36
-15 55 -42 55 -75 0 -31 -27 -25 -33 7 -12 60 -95 62 -115 3 -13 -37 -32 -41
-32 -7 0 30 34 73 63 79 12 2 23 5 25 6 1 0 18 -5 37 -13z m-151 -88 c15 -25
3 -31 -28 -14 -34 17 -63 10 -83 -21 -14 -21 -15 -30 -4 -60 14 -39 9 -52 -13
-33 -36 29 -28 105 13 137 23 18 101 12 115 -9z m374 -24 c27 -31 29 -83 3
-115 -24 -29 -38 -18 -23 16 19 42 15 73 -14 92 -22 14 -31 15 -56 5 -50 -19
-63 8 -14 28 32 14 79 3 104 -26z m-162 -23 c130 -59 164 -234 67 -342 -42
-47 -73 -64 -128 -73 -203 -34 -338 218 -197 368 60 64 174 85 258 47z m-336
-116 c0 -8 -8 -15 -17 -15 -26 0 -53 -30 -53 -59 0 -34 10 -48 43 -60 34 -13
35 -31 2 -31 -40 0 -75 42 -75 87 0 21 6 45 13 54 28 36 87 52 87 24z m558
-41 c24 -27 29 -73 11 -106 -12 -22 -74 -52 -89 -43 -18 11 -10 21 25 34 57
20 62 84 10 111 -17 8 -32 16 -34 17 -1 1 0 7 4 13 10 16 46 2 73 -26z m-538
-147 c0 -2 -7 -18 -15 -34 -29 -59 22 -111 81 -84 32 14 34 14 34 -4 0 -31
-70 -46 -112 -24 -40 22 -55 99 -25 137 8 11 37 18 37 9z m468 -42 c16 -34 15
-50 -3 -85 -26 -51 -107 -61 -143 -17 -20 24 2 29 37 10 29 -17 31 -17 58 3
30 23 42 59 24 77 -15 15 -14 37 2 37 8 0 19 -11 25 -25z m-317 -117 c18 -40
39 -53 73 -44 19 5 32 17 39 36 13 34 37 40 37 9 0 -30 -53 -79 -85 -79 -53 0
-94 36 -95 83 0 36 13 34 31 -5z"/>
<path d="M3278 3101 c-130 -83 -111 -275 34 -336 128 -53 271 59 256 200 -16
137 -173 210 -290 136z m192 -37 c86 -73 78 -197 -16 -251 -71 -41 -155 -21
-202 48 -20 28 -23 44 -20 89 7 94 56 139 150 140 47 0 62 -5 88 -26z"/>
<path d="M3343 3059 c-48 -14 -83 -62 -83 -115 0 -37 6 -51 34 -82 31 -33 39
-37 85 -37 43 0 55 5 82 31 90 91 6 238 -118 203z m47 -64 c0 -34 1 -35 40
-35 54 0 56 -27 3 -32 -36 -3 -38 -5 -38 -37 0 -48 -23 -52 -27 -4 -3 37 -4
38 -46 41 -56 4 -51 26 7 30 42 3 43 4 38 31 -3 16 -3 31 0 35 15 14 23 4 23
-29z"/>
<path d="M2407 3152 c-10 -10 -17 -28 -17 -40 0 -21 34 -52 57 -52 17 0 93 69
93 85 0 12 -50 25 -96 25 -11 0 -28 -8 -37 -18z"/>
<path d="M2830 3163 c-8 -2 -21 -6 -28 -9 -20 -6 43 -82 74 -90 49 -13 85 54
48 90 -15 15 -62 20 -94 9z"/>
<path d="M1388 3117 l-37 -12 22 -25 c28 -32 67 -60 84 -60 18 0 53 37 53 55
0 23 -37 55 -62 54 -13 0 -40 -6 -60 -12z"/>
<path d="M3847 3112 c-10 -10 -17 -28 -17 -39 0 -23 29 -53 51 -53 17 0 99 67
99 80 0 10 -64 30 -96 30 -11 0 -28 -8 -37 -18z"/>
<path d="M2442 2944 c-40 -28 -16 -94 34 -94 19 0 104 35 104 43 0 7 -74 55
-95 61 -12 3 -30 -1 -43 -10z"/>
<path d="M2819 2940 c-19 -10 -41 -26 -48 -34 -12 -14 -7 -19 34 -37 53 -23
89 -19 105 11 15 29 -14 80 -45 79 -5 0 -26 -8 -46 -19z"/>
<path d="M1415 2905 c-17 -7 -41 -24 -54 -38 l-24 -26 29 -12 c16 -6 45 -13
65 -16 32 -5 39 -2 54 20 31 47 -16 96 -70 72z"/>
<path d="M3870 2907 c-28 -14 -39 -59 -19 -83 15 -19 59 -18 109 2 37 15 40
18 26 33 -9 10 -33 27 -54 38 -32 19 -42 20 -62 10z"/>
<path d="M2375 2734 c-23 -23 -15 -66 15 -81 31 -15 110 -17 110 -2 0 16 -20
51 -43 77 -24 26 -59 29 -82 6z"/>
<path d="M2860 2706 c-16 -25 -30 -49 -30 -55 0 -14 85 -14 110 -1 54 29 40
100 -20 100 -23 0 -35 -9 -60 -44z"/>
<path d="M1497 2709 c-20 -12 -67 -82 -67 -100 0 -19 112 -4 127 17 20 27 16
61 -9 78 -26 19 -27 19 -51 5z"/>
<path d="M3793 2709 c-12 -4 -25 -20 -29 -34 -10 -40 22 -67 85 -73 59 -5 62
1 30 58 -25 44 -55 61 -86 49z"/>
<path d="M2240 2570 c-38 -38 -20 -74 53 -105 47 -20 47 -20 47 14 0 60 -32
111 -69 111 -6 0 -20 -9 -31 -20z"/>
<path d="M3022 2565 c-19 -23 -38 -102 -28 -113 3 -2 19 1 36 8 75 31 101 78
62 113 -26 24 -47 21 -70 -8z"/>
<path d="M1629 2544 c-13 -16 -26 -124 -15 -124 12 0 70 32 89 48 20 17 23 62
5 80 -17 17 -63 15 -79 -4z"/>
<path d="M3625 2540 c-29 -32 -13 -66 45 -95 27 -14 52 -21 55 -16 9 16 -7 95
-23 114 -20 23 -55 22 -77 -3z"/>
<path d="M2537 2192 l-108 -251 16 -34 c46 -97 185 -72 200 37 3 23 5 144 3
270 l-3 229 -108 -251z"/>
<path d="M2689 2254 c-2 -362 -1 -372 65 -399 25 -11 43 -12 69 -4 37 10 77
54 77 84 0 14 -195 482 -206 494 -2 2 -4 -76 -5 -175z"/>
<path d="M2040 2471 c-5 -11 -10 -27 -10 -35 0 -19 69 -98 80 -91 4 3 13 25
19 51 10 39 9 50 -4 70 -20 30 -69 33 -85 5z"/>
<path d="M3212 2478 c-7 -7 -12 -23 -12 -37 0 -35 19 -101 29 -101 10 0 43 37
66 73 16 25 16 29 1 52 -18 27 -63 34 -84 13z"/>
<path d="M1835 2466 c-24 -24 -24 -32 0 -113 10 -31 19 -29 54 14 37 45 40 85
9 107 -30 21 -35 20 -63 -8z"/>
<path d="M3436 2469 c-14 -11 -26 -28 -26 -38 0 -18 59 -101 71 -101 4 0 15
21 25 46 30 79 -14 137 -70 93z"/>
<path d="M1628 4492 l-50 -48 31 -33 c38 -41 66 -128 56 -179 -21 -112 -105
-182 -219 -182 -36 0 -64 8 -94 25 l-42 24 -36 -72 c-35 -69 -36 -73 -23 -112
16 -44 67 -85 106 -85 39 0 92 30 110 61 21 35 33 36 63 4 49 -53 139 -39 181
27 16 26 19 44 15 81 -5 45 -4 47 20 47 70 0 134 61 134 128 0 41 -25 86 -57
103 -28 15 -29 26 -2 55 12 13 23 41 26 67 10 82 -42 137 -127 137 -36 0 -48
-7 -92 -48z m98 -31 c37 -22 50 -63 34 -102 -11 -26 -45 -48 -57 -36 -2 3 5
19 18 36 20 27 21 33 9 56 -13 25 -26 30 -67 26 -31 -2 -39 17 -11 28 33 14
39 13 74 -8z m39 -216 c52 -51 15 -135 -60 -135 -46 0 -43 22 5 31 55 12 67
54 25 93 -14 13 -25 26 -25 30 0 15 33 4 55 -19z m-107 -206 c4 -49 -28 -89
-72 -89 -32 0 -86 32 -86 51 0 14 26 11 40 -6 15 -18 61 -20 78 -3 7 7 12 29
12 51 0 49 24 46 28 -4z m-333 -29 c4 -51 73 -72 96 -29 10 19 39 27 39 10 0
-4 -9 -20 -21 -35 -22 -28 -72 -36 -108 -16 -23 12 -45 64 -37 86 9 22 29 12
31 -16z"/>
<path d="M3553 4524 c-18 -9 -42 -31 -53 -49 -32 -52 -25 -100 23 -153 l21
-22 -42 -35 c-28 -25 -43 -47 -48 -71 -13 -72 46 -144 118 -144 l41 0 -7 -39
c-11 -69 28 -133 92 -151 38 -10 86 4 111 33 20 24 46 21 59 -8 17 -37 67 -58
121 -52 57 6 101 52 101 106 0 26 -42 122 -65 149 -1 2 -20 -7 -41 -20 -55
-33 -143 -32 -204 2 -120 68 -147 227 -54 330 l33 37 -42 41 c-64 62 -107 74
-164 46z m131 -60 c9 -3 16 -12 16 -20 0 -10 -8 -12 -30 -7 -54 10 -95 -54
-55 -87 17 -14 20 -40 6 -40 -18 0 -51 53 -51 82 0 54 61 92 114 72z m-64
-208 c0 -7 -7 -19 -16 -26 -8 -8 -19 -21 -24 -31 -13 -24 24 -69 56 -69 15 0
24 -6 24 -15 0 -10 -10 -15 -30 -15 -44 0 -80 39 -80 85 0 25 8 44 25 60 27
28 45 32 45 11z m85 -215 c-5 -22 -1 -35 14 -50 26 -26 42 -26 74 -1 30 24 37
25 37 6 0 -21 -49 -56 -77 -56 -30 0 -83 51 -83 78 0 31 11 52 27 52 11 0 13
-7 8 -29z m335 -42 c0 -39 -39 -79 -78 -79 -36 0 -82 34 -82 61 0 26 15 24 34
-6 9 -14 26 -25 38 -25 29 0 58 28 58 55 0 12 3 25 6 28 13 12 24 -4 24 -34z"/>
<path d="M1543 4408 c-9 -11 -8 -16 7 -26 29 -18 52 -69 52 -118 0 -115 -117
-188 -219 -136 -38 20 -53 20 -53 1 0 -17 80 -49 120 -49 119 0 211 116 181
228 -7 24 -27 59 -45 79 -26 29 -34 33 -43 21z"/>
<path d="M3752 4387 c-48 -51 -65 -138 -38 -200 27 -64 108 -117 175 -117 38
1 111 36 111 55 0 19 -4 19 -42 -1 -96 -50 -213 12 -225 118 -6 48 22 119 53
136 9 5 14 14 10 21 -10 16 -20 14 -44 -12z"/>
<path d="M1475 4333 c-66 -81 -105 -137 -105 -150 0 -16 52 -43 85 -43 77 0
141 87 114 157 -10 27 -47 73 -58 73 -3 0 -19 -17 -36 -37z"/>
<path d="M3798 4343 c-69 -80 -37 -182 64 -207 29 -7 90 13 103 34 8 13 -122
190 -140 190 -7 0 -19 -8 -27 -17z"/>
<path d="M1190 3826 c-13 -39 -25 -75 -28 -80 -3 -6 8 -1 24 11 16 11 47 26
69 34 22 7 41 14 42 14 2 1 -17 22 -41 47 l-43 45 -23 -71z"/>
<path d="M4110 3893 c0 -7 -16 -31 -35 -52 l-36 -39 30 -7 c17 -3 46 -17 66
-30 19 -14 35 -23 35 -21 0 1 -9 32 -21 67 -23 70 -38 102 -39 82z"/>
<path d="M1164 2441 c-54 -33 -67 -108 -35 -194 9 -24 13 -25 41 -15 52 18
135 5 183 -28 61 -43 89 -103 85 -182 l-4 -62 50 -15 c77 -23 103 -20 142 19
38 38 45 86 19 135 -13 26 -67 61 -94 61 -14 0 -14 6 3 55 18 51 11 89 -25
124 -38 39 -81 46 -134 22 -47 -21 -55 -19 -55 12 0 11 -16 35 -36 53 -42 40
-91 45 -140 15z m121 -96 c28 -27 33 -65 10 -65 -8 0 -15 6 -15 13 0 8 -9 22
-20 32 -27 24 -72 11 -80 -24 -8 -37 -30 -38 -30 -3 0 64 88 95 135 47z m188
-76 c21 -26 22 -82 2 -99 -20 -17 -37 -4 -23 19 17 28 2 70 -28 77 -14 4 -30
2 -37 -5 -15 -15 -37 -14 -37 2 0 39 92 43 123 6z m72 -174 c46 -46 19 -135
-42 -135 -31 0 -29 18 2 30 30 11 39 31 31 65 -4 15 -16 27 -31 31 -14 3 -25
12 -25 20 0 22 39 16 65 -11z"/>
<path d="M4049 2445 c-15 -8 -36 -35 -48 -59 l-21 -45 -43 19 c-35 15 -51 17
-78 10 -73 -20 -109 -102 -75 -168 l16 -32 -40 -16 c-98 -39 -117 -156 -35
-210 27 -17 97 -14 151 6 23 9 25 13 19 53 -13 87 29 170 108 213 41 22 58 26
105 22 32 -3 64 -8 73 -12 34 -15 54 139 23 182 -33 48 -104 65 -155 37z m103
-89 c24 -18 41 -67 29 -79 -6 -6 -12 -9 -13 -6 -2 2 -10 18 -18 34 -23 44 -64
46 -88 6 -20 -37 -47 -43 -37 -8 18 58 84 86 127 53z m-175 -78 c23 -19 0 -29
-36 -15 -30 11 -34 10 -53 -12 -19 -24 -19 -35 -3 -75 6 -14 4 -17 -10 -15
-45 9 -39 104 8 127 25 13 73 8 94 -10z m-117 -173 c0 -8 -9 -15 -20 -15 -11
0 -27 -12 -37 -26 -20 -31 -11 -52 30 -72 31 -15 35 -32 8 -32 -33 0 -51 11
-67 42 -27 52 9 115 69 117 9 1 17 -6 17 -14z"/>
<path d="M1178 2203 c-10 -2 -18 -10 -18 -18 0 -10 14 -12 58 -8 96 7 153 -44
162 -147 6 -61 23 -74 28 -21 8 82 -35 158 -105 187 -31 14 -89 17 -125 7z"/>
<path d="M4025 2196 c-66 -28 -114 -120 -101 -190 10 -52 35 -38 29 17 -5 52
20 102 68 135 27 19 46 23 89 22 74 -3 78 -2 56 15 -24 18 -101 19 -141 1z"/>
<path d="M1190 2141 c0 -16 89 -101 130 -125 l33 -19 -5 48 c-8 65 -40 96
-107 103 -36 3 -51 1 -51 -7z"/>
<path d="M4026 2119 c-22 -19 -38 -43 -42 -64 -9 -52 3 -60 44 -29 57 42 122
106 116 116 -3 4 -23 8 -44 8 -30 0 -48 -8 -74 -31z"/>
<path d="M1592 1829 c3 -43 4 -44 47 -51 95 -16 192 -92 233 -182 22 -50 23
-62 28 -416 6 -409 5 -406 77 -437 102 -42 207 64 159 163 -17 38 -69 74 -103
74 -14 0 -23 6 -23 15 0 22 46 19 91 -7 75 -42 101 -151 52 -217 -36 -48 -70
-65 -127 -65 -59 -1 -92 16 -130 68 -20 26 -21 43 -26 399 l-5 372 -30 54
c-47 86 -143 151 -222 151 -21 0 -23 -4 -23 -59 0 -58 1 -60 31 -66 40 -9 104
-67 132 -119 21 -39 22 -57 27 -396 l5 -355 32 -46 c94 -135 278 -150 385 -31
48 53 68 122 68 234 0 72 3 88 15 88 10 0 15 -10 15 -30 0 -20 11 -42 33 -66
59 -65 167 -54 207 21 7 14 19 25 27 25 19 0 16 -12 -10 -51 -46 -69 -138 -88
-213 -45 l-42 24 -7 -57 c-12 -100 -49 -160 -134 -216 -56 -37 -168 -47 -238
-20 -63 24 -126 84 -152 146 -21 47 -22 66 -24 387 -2 383 -3 386 -86 450 -76
58 -73 72 -69 -285 5 -353 9 -377 75 -513 49 -100 177 -230 280 -283 66 -34
203 -78 242 -77 9 1 25 20 36 43 11 23 34 51 52 62 31 20 31 21 26 80 -4 52
-2 65 19 95 39 58 126 88 178 60 15 -8 22 -4 38 24 26 44 60 66 111 73 53 7
122 -26 146 -70 17 -32 19 -33 55 -23 107 28 204 -71 179 -181 -4 -21 -7 -38
-6 -38 24 -3 68 -44 86 -80 24 -46 26 -47 63 -41 247 40 457 216 535 450 27
80 27 84 31 409 l3 329 -23 -7 c-32 -11 -71 -43 -99 -84 -24 -34 -24 -36 -29
-385 -5 -331 -6 -354 -26 -397 -48 -103 -135 -158 -249 -159 -158 0 -274 112
-275 264 l0 59 -22 -21 c-72 -67 -206 -49 -245 33 -24 51 -8 54 34 6 32 -36
45 -44 85 -48 74 -9 125 31 142 109 4 16 13 28 21 28 12 0 15 -19 15 -108 0
-97 3 -114 26 -161 72 -144 267 -179 382 -68 19 18 43 50 55 72 21 38 22 55
27 390 5 337 6 352 27 391 26 49 70 88 118 105 35 13 35 14 35 71 0 57 -1 58
-27 58 -45 0 -125 -44 -170 -93 -78 -85 -77 -77 -83 -492 -6 -418 -4 -410 -83
-446 -53 -24 -81 -23 -134 1 -55 25 -83 70 -83 135 0 82 47 139 124 152 29 4
36 2 36 -11 0 -10 -8 -16 -21 -16 -33 0 -85 -37 -97 -68 -24 -60 -18 -95 22
-140 31 -33 39 -37 85 -37 43 0 55 5 81 31 17 17 36 48 41 70 5 21 8 188 8
371 -1 332 -1 332 24 386 13 29 38 69 55 88 38 43 117 88 174 97 42 7 43 8 46
51 l3 44 -54 -6 c-74 -7 -157 -48 -225 -112 -114 -105 -142 -192 -142 -437 0
-184 -6 -213 -56 -260 -52 -49 -115 -60 -180 -33 -32 13 -37 13 -67 -5 -41
-25 -83 -25 -124 0 -32 19 -33 19 -75 0 -54 -25 -62 -25 -114 1 -41 19 -44 19
-69 3 -34 -22 -103 -22 -137 0 -24 16 -29 16 -57 2 -38 -20 -84 -20 -122 0
-28 14 -34 14 -64 0 -77 -37 -181 -1 -221 76 -10 20 -15 81 -18 220 -5 254
-24 314 -133 423 -68 68 -156 114 -238 122 l-56 6 3 -44z"/>
<path d="M2336 1695 c-20 -7 -42 -18 -50 -24 -11 -9 -26 -8 -65 4 -63 21 -106
9 -151 -42 l-32 -36 4 -228 c3 -212 4 -229 24 -256 49 -65 120 -89 174 -58 14
8 30 17 37 21 7 3 26 -4 42 -15 37 -27 72 -27 121 1 l39 23 23 -22 c13 -11 33
-24 45 -27 21 -7 70 10 103 35 13 9 24 6 55 -16 45 -30 79 -29 122 5 33 25 36
25 69 -5 34 -32 71 -32 118 0 l36 24 35 -21 c65 -38 152 -9 187 63 14 28 17
72 20 254 3 251 1 257 -78 295 -42 21 -46 21 -96 6 -51 -15 -54 -15 -82 5 -46
34 -96 36 -133 5 -17 -14 -33 -26 -36 -26 -4 0 -23 11 -43 25 -47 32 -84 32
-124 -2 -26 -22 -35 -24 -49 -15 -65 48 -112 51 -151 12 -24 -24 -26 -24 -58
-2 -39 27 -64 31 -106 17z m-78 -75 c17 -11 32 -16 32 -11 0 5 14 14 30 21 39
16 115 8 140 -15 11 -10 20 -13 20 -8 0 36 133 41 171 7 13 -12 23 -15 27 -8
24 37 109 45 160 14 17 -11 32 -16 32 -11 0 14 49 31 88 31 20 0 51 -8 68 -19
29 -18 31 -18 54 1 34 27 121 21 153 -11 21 -21 22 -28 22 -245 0 -224 0 -224
-24 -250 -21 -22 -33 -26 -81 -26 -35 0 -64 6 -78 16 -21 15 -25 15 -41 0 -24
-22 -119 -22 -149 0 -21 15 -25 15 -41 0 -26 -24 -121 -22 -153 4 -25 19 -26
19 -43 0 -23 -26 -119 -28 -153 -4 -21 15 -25 15 -41 0 -24 -22 -119 -22 -149
0 -21 15 -25 15 -41 0 -12 -11 -36 -16 -75 -16 -47 0 -61 4 -81 25 l-25 24 0
223 c1 232 2 241 45 266 31 18 97 14 133 -8z"/>
<path d="M2132 1594 c-20 -14 -22 -23 -22 -115 l0 -100 78 3 77 3 3 86 c2 74
0 89 -18 112 -25 32 -81 37 -118 11z"/>
<path d="M2322 1594 c-20 -14 -22 -23 -22 -115 l0 -100 78 3 77 3 3 75 c3 85
-1 112 -24 134 -20 20 -83 21 -112 0z"/>
<path d="M2512 1594 c-20 -14 -22 -23 -22 -115 l0 -100 78 3 77 3 3 90 c2 80
0 93 -18 113 -25 26 -84 30 -118 6z"/>
<path d="M2704 1589 c-16 -17 -19 -37 -19 -113 l0 -91 80 0 80 0 3 86 c2 74 0
89 -18 112 -28 35 -97 38 -126 6z"/>
<path d="M2902 1594 c-20 -14 -22 -23 -22 -115 l0 -100 78 3 77 3 3 86 c2 74
0 89 -18 112 -25 32 -81 37 -118 11z"/>
<path d="M3092 1594 c-20 -14 -22 -23 -22 -115 l0 -100 78 3 77 3 3 92 c2 82
0 95 -18 113 -24 24 -86 27 -118 4z"/>
<path d="M2110 1256 c0 -127 7 -138 83 -134 68 4 78 23 75 143 l-3 90 -77 3
-78 3 0 -105z"/>
<path d="M2300 1256 c0 -125 7 -136 80 -136 71 0 82 20 78 141 l-3 94 -77 3
-78 3 0 -105z"/>
<path d="M2490 1257 c0 -123 8 -137 83 -137 67 0 79 21 75 141 l-3 94 -77 3
-78 3 0 -104z"/>
<path d="M2687 1354 c-11 -11 -8 -158 4 -193 12 -35 35 -44 95 -39 54 4 65 30
62 143 l-3 90 -75 3 c-42 1 -79 0 -83 -4z"/>
<path d="M2880 1256 c0 -125 7 -136 80 -136 71 0 82 20 78 141 l-3 94 -77 3
-78 3 0 -105z"/>
<path d="M3070 1257 c0 -123 8 -137 83 -137 67 0 79 21 75 141 l-3 94 -77 3
-78 3 0 -104z"/>
<path d="M2613 804 c-20 -10 -40 -33 -54 -60 -23 -49 -24 -49 -59 -29 -72 41
-170 -20 -170 -107 0 -12 7 -36 15 -52 8 -15 15 -30 15 -32 0 -2 -20 -14 -45
-25 -39 -18 -75 -59 -75 -84 0 -3 19 -5 43 -5 36 0 46 4 57 25 14 27 68 51 83
36 6 -6 -2 -15 -21 -25 -50 -26 -48 -36 6 -36 48 0 50 1 56 32 17 84 114 158
205 158 92 -1 185 -72 198 -152 l6 -38 51 0 51 1 -23 19 c-12 10 -28 20 -34
22 -6 2 -8 9 -5 15 11 18 67 -5 79 -33 9 -20 19 -24 55 -24 30 0 43 4 43 14 0
24 -40 65 -75 77 -36 13 -45 35 -24 56 18 18 14 86 -7 118 -18 28 -68 55 -101
55 -10 0 -31 -7 -47 -15 -39 -21 -41 -20 -58 24 -27 67 -103 97 -165 65z m91
-85 c30 -14 54 -65 38 -81 -8 -8 -14 -4 -21 15 -22 56 -93 57 -107 2 -8 -32
-30 -27 -26 6 8 55 63 82 116 58z m-163 -85 c17 -21 4 -28 -29 -16 -23 8 -35
7 -52 -5 -19 -13 -21 -21 -15 -59 4 -28 2 -44 -4 -44 -24 0 -40 66 -25 105 15
38 99 50 125 19z m365 -6 c21 -23 24 -79 4 -102 -19 -23 -35 -4 -20 23 24 46
-20 90 -68 68 -16 -7 -26 -7 -34 1 -9 9 -3 15 21 25 40 17 74 12 97 -15z"/>
<path d="M2615 563 c-49 -12 -107 -73 -120 -125 -11 -44 17 -34 40 14 25 53
61 79 118 85 35 4 54 0 84 -17 40 -22 73 -65 73 -94 0 -9 8 -16 19 -16 17 0
18 4 11 29 -26 93 -127 148 -225 124z"/>
<path d="M2608 495 c-23 -13 -58 -61 -58 -80 0 -3 52 -5 115 -5 129 0 137 5
87 61 -34 38 -100 49 -144 24z"/>
</g>
</svg>
